<svg width="24" height="25" viewBox="0 0 24 25" fill="none" xmlns="http://www.w3.org/2000/svg">
<path fill-rule="evenodd" clip-rule="evenodd" d="M19.8649 17.473C19.7357 17.351 19.6377 17.2245 19.6044 17.1073C19.474 16.6431 19.646 15.2938 19.9048 14.8725C20.1628 14.4496 19.877 13.181 19.7926 12.971C19.7058 12.7597 19.6767 12.4857 19.3805 12.5688C19.0826 12.6535 18.4132 12.6219 17.8079 12.4954C17.2008 12.3701 16.6723 11.7761 16.5514 11.1064C16.416 10.3555 16.416 9.62608 16.5888 9.16874C16.782 8.65464 17.2578 8.46003 17.6932 8.21757C17.8939 8.10648 18.8644 7.94917 18.8279 7.4748C18.6023 7.03773 16.5419 7.53481 16.4592 6.85569C16.3757 6.17536 16.3462 5.83397 16.6075 5.28662C16.8817 4.71576 16.5664 4.79198 16.4908 4.09989C16.4804 4.00137 16.6952 3.74675 16.7122 3.65715C17.4231 4.06786 18.0908 4.55885 18.6899 5.1435C20.5667 6.9757 21.6 9.4116 21.6 12.0028C21.6 13.9854 20.9905 15.8735 19.8649 17.473M15.4437 17.1653C15.034 17.8261 15.1325 18.3129 14.1978 18.8182C13.6772 19.0999 13.3068 19.1797 13.0314 19.9363C12.7548 20.6913 12.2962 20.6647 11.1512 21.278C10.0047 21.893 9.54927 21.278 9.45587 20.8064C9.36288 20.3347 9.64544 19.2206 9.64544 19.2206C9.64544 19.2206 9.75751 18.8878 8.9452 18.5119C6.89097 17.5616 8.66343 14.2252 8.66343 14.2252C8.19925 13.6733 7.02052 12.5907 5.37483 12.2362C3.80147 11.898 3.35279 10.96 2.79999 10.0236C3.20456 8.29008 4.05462 6.69699 5.30966 5.40319C7.10477 3.55338 9.49085 2.43809 12.0315 2.43809C12.0315 2.43809 12.8883 2.43809 13.6971 2.65386C12.9575 3.48091 12.1301 4.31697 11.5153 4.54748C10.4085 4.96509 9.89541 5.64925 9.89064 6.37804C9.88826 6.75553 10.6577 7.43969 10.6577 8.30523C10.6577 9.77631 9.59497 9.8103 9.47098 9.19042C9.1912 7.78443 8.12096 8.1476 6.8393 8.28844C5.55565 8.43051 4.77792 9.96588 5.60215 10.58C6.42798 11.1942 6.38546 10.386 6.70299 10.1554C7.01893 9.92453 7.24228 9.83322 7.48232 10.1554C7.72037 10.4777 8.23661 10.6529 8.18693 11.3141C8.14361 11.975 8.00452 12.5408 8.87684 12.5408C9.74797 12.5408 9.77818 12.7381 10.331 13.0211C10.8782 13.3044 11.3964 13.2512 11.8531 13.3461C12.3117 13.4399 12.9126 14.3521 12.9126 14.3521C14.2125 14.7849 14.6401 14.9618 14.999 15.3302C15.3567 15.6987 15.8582 16.5041 15.4437 17.1653M11.9986 0H11.9954H11.9922C7.23149 0 3.13019 2.82535 1.19038 6.90794C0.430136 8.50773 8.94955e-08 10.2953 8.94955e-08 12.1905C-0.000800164 18.9221 5.3653 24.381 11.9938 24.381H11.997H12.0002C18.6263 24.381 24.0008 18.9221 24 12.1921C24.0008 5.39835 18.5467 0 11.9986 0" fill="white"/>
</svg>
